PathFileType	4	(X/Y/Z)	HSS_walk1.trc
DataRate	CameraRate	NumFrames	NumMarkers	Units	OrigDataRate	OrigDataStartFrame	OrigNumFrames
120.0	120.0	6	44	mm	120.0	379	1008
Frame#	Time		R.Shoulder		Offset		L.Shoulder		R.Elbow		R.Wrist.Radial		R.Wrist		R.Hand		L.Elbow		L.Wrist.Radial		L.Wrist		L.Hand		R.Hip		V.Sacral		L.PSIS		L.Hip		R.Thigh.Upper		R.Thigh.Front		R.Thigh.Rear		X.Shell.Lower.Thigh.Right		R.Knee.Lateral		R.Shank.Upper		R.Shank.Front		R.Shank.Rear		X.Shell.Lower.Shank.Right		R.Ankle.Lateral		R.Heel		R.Toe		L.Thigh.Upper		L.Thigh.Front		L.Thigh.Rear		X.Shell.Lower.Thigh.Left		L.Knee.Lateral		L.Shank.Upper		L.Shank.Front		L.Shank.Rear		X.Shell.Lower.Shank.Left		L.Ankle.Lateral		L.Heel		L.Toe		R.Troc		L.Troc		R.PSIS		L.ASIS		R.ASIS
			X1	Y1	Z1	X2	Y2	Z2	X3	Y3	Z3	X4	Y4	Z4	X5	Y5	Z5	X6	Y6	Z6	X7	Y7	Z7	X8	Y8	Z8	X9	Y9	Z9	X10	Y10	Z10	X11	Y11	Z11	X12	Y12	Z12	X13	Y13	Z13	X14	Y14	Z14	X15	Y15	Z15	X16	Y16	Z16	X17	Y17	Z17	X18	Y18	Z18	X19	Y19	Z19	X20	Y20	Z20	X21	Y21	Z21	X22	Y22	Z22	X23	Y23	Z23	X24	Y24	Z24	X25	Y25	Z25	X26	Y26	Z26	X27	Y27	Z27	X28	Y28	Z28	X29	Y29	Z29	X30	Y30	Z30	X31	Y31	Z31	X32	Y32	Z32	X33	Y33	Z33	X34	Y34	Z34	X35	Y35	Z35	X36	Y36	Z36	X37	Y37	Z37	X38	Y38	Z38	X39	Y39	Z39	X40	Y40	Z40	X41	Y41	Z41	X42	Y42	Z42	X43	Y43	Z43	X44	Y44	Z44

379	3.15000	-1638.86658	1466.10388	-25.49978	-1765.35168	1391.33057	-325.43494	-1623.95886	1476.62000	-402.02884	-1671.03467	1098.18408	20.78960	-1528.15222	887.62354	-20.87035	-1553.20288	875.92566	47.03638	-1504.75696	805.47748	29.90123	-1643.65662	1110.46460	-450.83701	-1509.24597	900.79871	-385.95276	-1523.40198	900.00403	-457.69855	-1482.37476	827.46729	-429.57690	-1606.63220	1034.21362	-58.84472	-1718.26624	1018.33716	-210.92191	-1717.46521	1024.62195	-252.30971	-1598.36292	1031.54871	-358.15875	-1575.45020	691.45282	-21.27716	-1545.78772	652.33685	-39.11012	-1601.12085	655.02979	-11.72029	-1576.89001	620.42322	-30.79437	-1647.64417	517.29791	-40.63099	-1671.15039	371.14105	11.44693	-1647.01282	325.80151	-12.27878	-1705.39246	336.24695	1.32182	-1685.30469	294.88165	-8.15117	-1708.60303	70.85786	-53.61951	-1753.52063	32.46160	-101.21676	-1554.56042	32.34459	-52.92226	-1560.60876	690.17194	-381.35501	-1545.61877	639.84033	-357.30621	-1591.98511	656.27106	-396.62912	-1569.81458	620.01373	-382.87912	-1646.39233	507.97723	-366.03003	-1687.09021	308.39676	-409.13394	-1660.31689	283.39114	-390.78629	-1719.49976	270.64590	-396.14859	-1697.40247	238.89165	-397.54346	-1689.28223	72.68978	-352.23267	-1745.08289	33.92008	-306.34879	-1545.34607	32.53679	-343.30618	-1591.78259	878.28906	-21.84620	-1590.72217	889.83099	-392.76508	-1720.01196	1022.32245	-166.52913	-1529.53174	995.54474	-316.07327	-1542.03833	997.22217	-88.82986
380	3.15833	-1638.73938	1466.18103	-25.53869	-1765.17761	1391.40002	-325.48215	-1623.84290	1476.70117	-402.14056	-1670.84216	1098.30359	20.76814	-1527.91223	887.72961	-20.88896	-1553.04382	876.03308	47.08143	-1504.63037	805.60553	29.92237	-1643.50708	1110.51599	-450.78809	-1509.13757	900.81659	-385.98013	-1523.27637	900.04645	-457.66354	-1482.17859	827.51477	-429.50894	-1606.51245	1034.30579	-58.92469	-1718.28760	1018.50452	-210.92105	-1717.52856	1024.77600	-252.27847	-1598.39197	1031.61670	-358.25073	-1575.12146	691.50604	-21.27628	-1545.47412	652.39673	-39.22157	-1600.62756	655.05859	-11.64978	-1576.60779	620.46979	-30.72668	-1647.09216	517.40558	-40.46814	-1670.39417	370.95447	11.53393	-1646.46436	325.61990	-12.44649	-1704.80212	336.27420	1.53051	-1684.69019	294.74582	-8.10423	-1708.60767	70.81390	-53.47221	-1753.54883	32.43702	-101.06096	-1554.57593	32.34680	-52.91516	-1560.42188	690.25171	-381.63828	-1545.29980	639.91534	-357.52646	-1591.69348	656.27246	-396.81595	-1569.45605	620.02753	-383.04623	-1645.86182	508.01236	-366.01294	-1686.45117	308.27618	-409.01053	-1659.81213	283.34283	-390.61386	-1719.00574	270.54526	-396.08505	-1697.00293	238.85698	-397.48758	-1689.22180	72.65361	-352.23233	-1745.12500	33.87943	-306.33310	-1545.44751	32.70488	-343.34659	-1591.54822	878.21967	-21.81882	-1590.76062	889.89233	-392.94629	-1720.02478	1022.52069	-166.51968	-1529.64612	995.53137	-316.17465	-1542.37720	997.04248	-88.98709
381	3.16667	-1638.54407	1466.31116	-25.63580	-1764.99695	1391.46582	-325.52927	-1623.72168	1476.79626	-402.29971	-1670.68567	1098.42651	20.71062	-1527.67041	887.80560	-20.87097	-1552.89270	876.15222	47.12052	-1504.51587	805.71796	29.99293	-1643.40015	1110.58105	-450.79260	-1508.95398	900.88428	-385.80249	-1523.14795	900.11182	-457.64740	-1482.04626	827.57062	-429.41821	-1606.33020	1034.35583	-59.05385	-1718.32922	1018.73669	-210.90858	-1717.60718	1024.96692	-252.27745	-1598.39343	1031.64026	-358.31348	-1574.68237	691.55652	-21.36920	-1545.04553	652.49139	-39.21682	-1600.35498	655.08966	-11.56651	-1576.05493	620.47559	-30.71907	-1646.35718	517.50519	-40.28049	-1669.53320	370.79022	11.58517	-1645.64905	325.47104	-12.51438	-1704.09314	336.25723	1.64617	-1684.13257	294.64890	-8.10637	-1708.53650	70.75639	-53.35851	-1753.54333	32.37902	-100.93456	-1554.60632	32.39392	-52.92591	-1560.18115	690.28748	-381.84338	-1545.00403	640.03851	-357.65228	-1591.25220	656.32715	-397.05231	-1569.05774	620.03723	-383.16376	-1645.11035	508.03915	-366.03381	-1685.82507	308.14261	-408.95020	-1659.30298	283.19534	-390.33585	-1718.36133	270.52219	-396.15594	-1696.39209	238.76346	-397.47198	-1689.15674	72.62876	-352.25980	-1745.16089	33.85545	-306.36539	-1545.60291	32.86830	-343.30487	-1591.38855	878.21674	-21.84896	-1590.80859	889.96631	-393.20367	-1720.07141	1022.68958	-166.49960	-1529.77698	995.68445	-316.32843	-1542.28113	997.07965	-89.00911
382	3.17500	-1638.29224	1466.49451	-25.79884	-1764.80798	1391.55066	-325.60471	-1623.59534	1476.87585	-402.52249	-1670.49597	1098.56506	20.69039	-1527.39819	887.90442	-20.89711	-1552.69812	876.28467	47.12352	-1504.43909	805.79706	30.02493	-1643.28894	1110.65784	-450.79373	-1508.83142	900.90289	-385.74197	-1523.06482	900.15082	-457.61823	-1481.83911	827.64447	-429.19702	-1606.10120	1034.38611	-59.19472	-1718.46338	1019.04608	-210.90546	-1717.69543	1025.15527	-252.29025	-1598.43396	1031.66711	-358.38693	-1574.35107	691.55786	-21.47088	-1544.67053	652.52118	-39.40602	-1599.70520	655.11847	-11.47278	-1575.64331	620.47552	-30.73386	-1645.69299	517.53424	-40.07558	-1668.58167	370.60080	11.56353	-1645.03394	325.36319	-12.45413	-1703.22034	336.24399	1.75364	-1683.25916	294.46396	-8.09644	-1708.51489	70.71564	-53.27156	-1753.54639	32.35601	-100.81342	-1554.61182	32.40510	-52.95972	-1559.70459	690.36798	-382.11514	-1544.57495	640.13934	-357.81024	-1590.90637	656.36005	-397.24371	-1568.54736	620.10583	-383.29160	-1644.20593	507.90717	-366.05258	-1684.94604	308.04312	-408.99792	-1658.52576	282.99033	-390.21643	-1717.72388	270.51581	-396.14496	-1695.75977	238.62134	-397.42584	-1689.08411	72.57404	-352.30035	-1745.18958	33.81976	-306.39819	-1545.70947	33.07591	-343.43726	-1591.25427	878.21747	-21.96869	-1590.89124	890.09467	-393.48141	-1720.10291	1022.85138	-166.46828	-1529.93286	995.75562	-316.42926	-1542.33960	996.92639	-89.16164
383	3.18333	-1638.00623	1466.65723	-25.97726	-1764.62341	1391.64551	-325.65927	-1623.42175	1476.98242	-402.73770	-1670.29590	1098.68665	20.71862	-1527.01782	888.12738	-20.92434	-1552.60132	876.47748	47.17237	-1504.34863	805.91675	30.06879	-1643.19922	1110.71118	-450.77615	-1508.57373	901.02551	-385.69397	-1522.53955	900.11078	-456.89774	-1481.71912	827.68549	-429.04596	-1605.95471	1034.49219	-59.38836	-1718.55774	1019.24487	-210.91048	-1717.82703	1025.39331	-252.35641	-1598.34631	1031.69666	-358.40405	-1573.72864	691.59406	-21.67938	-1544.30420	652.52515	-39.55409	-1599.22925	655.06476	-11.48642	-1575.08020	620.48456	-30.78105	-1644.91003	517.39557	-40.16954	-1667.60840	370.45422	11.56906	-1644.24280	325.14655	-12.58905	-1702.32397	336.12976	1.80123	-1682.46802	294.32654	-8.14519	-1708.44385	70.65014	-53.18374	-1753.54419	32.31052	-100.73305	-1554.61133	32.42427	-52.98711	-1559.21399	690.47638	-382.30750	-1543.92566	640.29028	-357.99466	-1590.34863	656.43799	-397.52469	-1567.85388	620.19006	-383.40564	-1643.05884	507.75848	-366.10229	-1683.99255	307.89218	-409.08093	-1657.75659	282.82407	-390.11978	-1716.90540	270.43576	-396.19858	-1695.08801	238.51784	-397.41083	-1688.97278	72.53403	-352.33899	-1745.22327	33.79168	-306.40472	-1545.77686	33.18088	-343.47339	-1591.13342	878.21698	-22.06779	-1590.89807	890.12329	-393.85477	-1720.15063	1023.05615	-166.45671	-1530.09338	995.84650	-316.58276	-1542.32446	996.87390	-89.36609
384	3.19167	-1637.71997	1466.87964	-26.08753	-1764.38354	1391.78418	-325.77814	-1623.21326	1477.11926	-402.97882	-1670.13391	1098.86487	20.75986	-1526.68994	888.25702	-20.96329	-1552.50781	876.66510	47.24070	-1504.17725	806.11597	30.04031	-1643.09753	1110.78821	-450.78845	-1508.40332	901.09460	-385.61276	-1522.47913	900.15784	-456.82541	-1481.63733	827.81360	-428.97516	-1605.85144	1034.46313	-59.53669	-1718.64087	1019.43011	-210.92314	-1717.90173	1025.57678	-252.41252	-1598.47314	1031.80310	-358.52039	-1573.16370	691.64124	-21.80938	-1543.77698	652.59418	-39.71064	-1598.62854	655.09912	-11.43933	-1574.45935	620.50806	-30.83824	-1644.15393	517.32538	-40.29294	-1666.66931	370.28909	11.57111	-1643.51074	325.01559	-12.59706	-1701.49524	336.00143	1.91206	-1681.85815	294.21497	-8.09333	-1708.34363	70.53636	-53.12684	-1753.56384	32.28403	-100.62341	-1554.57385	32.43259	-53.02065	-1558.80640	690.53387	-382.33167	-1543.35205	640.42474	-358.03729	-1589.64880	656.41473	-397.71570	-1567.01526	620.21002	-383.51913	-1641.80383	507.69131	-366.17578	-1683.03955	307.68256	-409.04745	-1656.98816	282.64429	-390.07510	-1716.11157	270.35596	-396.37863	-1694.38623	238.46957	-397.34842	-1688.89343	72.52113	-352.38916	-1745.23499	33.77054	-306.46033	-1545.82263	33.25476	-343.46960	-1590.98816	878.19116	-22.20096	-1590.93896	890.13153	-394.10928	-1720.16589	1023.26508	-166.44969	-1530.80237	995.87982	-316.06451	-1542.07080	996.92023	-89.55963
